<svg width="164" height="50" viewBox="0 0 164 50" fill="none" xmlns="http://www.w3.org/2000/svg">
<rect x="33" y="5" width="40" height="40" rx="5" fill="#9D9AED"/>
<path d="M38.5384 35.44L38.3184 33.24C38.8918 33.24 39.3051 33.1167 39.5584 32.87C39.8118 32.63 39.9384 32.18 39.9384 31.52V18H42.4984V32.08C42.4984 33.3 42.2084 34.1633 41.6284 34.67C41.0484 35.1833 40.2584 35.44 39.2584 35.44H38.5384ZM49.4695 32.2C48.3829 32.2 47.4562 31.9633 46.6895 31.49C45.9229 31.0167 45.3362 30.3867 44.9295 29.6C44.5295 28.8133 44.3295 27.9533 44.3295 27.02C44.3295 26.08 44.5295 25.2133 44.9295 24.42C45.3362 23.6267 45.9229 22.9933 46.6895 22.52C47.4562 22.04 48.3829 21.8 49.4695 21.8C50.5562 21.8 51.4829 22.04 52.2495 22.52C53.0162 22.9933 53.5995 23.6267 53.9995 24.42C54.4062 25.2133 54.6095 26.08 54.6095 27.02C54.6095 27.9533 54.4062 28.8133 53.9995 29.6C53.5995 30.3867 53.0162 31.0167 52.2495 31.49C51.4829 31.9633 50.5562 32.2 49.4695 32.2ZM49.4695 30.16C50.3029 30.16 50.9429 29.87 51.3895 29.29C51.8429 28.7033 52.0695 27.9467 52.0695 27.02C52.0695 26.08 51.8429 25.3167 51.3895 24.73C50.9429 24.1367 50.3029 23.84 49.4695 23.84C48.6429 23.84 48.0029 24.1367 47.5495 24.73C47.0962 25.3167 46.8695 26.08 46.8695 27.02C46.8695 27.9467 47.0962 28.7033 47.5495 29.29C48.0029 29.87 48.6429 30.16 49.4695 30.16ZM61.5358 32.2C60.7758 32.2 60.1191 32.0767 59.5658 31.83C59.0124 31.5833 58.4958 31.2467 58.0158 30.82L58.7558 30.3L58.6358 32H56.3158V17H58.7958V23.66L58.1958 23.28C58.6358 22.8267 59.1258 22.4733 59.6658 22.22C60.2124 21.9667 60.8358 21.84 61.5358 21.84C62.5158 21.84 63.3391 22.0767 64.0058 22.55C64.6724 23.0233 65.1758 23.6533 65.5158 24.44C65.8624 25.2267 66.0358 26.0867 66.0358 27.02C66.0358 27.9533 65.8624 28.8133 65.5158 29.6C65.1758 30.3867 64.6724 31.0167 64.0058 31.49C63.3391 31.9633 62.5158 32.2 61.5358 32.2ZM61.1758 30.16C61.6691 30.16 62.0891 30.0267 62.4358 29.76C62.7824 29.4933 63.0458 29.1267 63.2258 28.66C63.4058 28.1867 63.4958 27.64 63.4958 27.02C63.4958 26.4 63.4058 25.8567 63.2258 25.39C63.0458 24.9167 62.7824 24.5467 62.4358 24.28C62.0891 24.0133 61.6691 23.88 61.1758 23.88C60.5958 23.88 60.1224 24.0133 59.7558 24.28C59.3891 24.5467 59.1158 24.9167 58.9358 25.39C58.7624 25.8567 58.6758 26.4 58.6758 27.02C58.6758 27.64 58.7624 28.1867 58.9358 28.66C59.1158 29.1267 59.3891 29.4933 59.7558 29.76C60.1224 30.0267 60.5958 30.16 61.1758 30.16Z" fill="white"/>
<path d="M78.651 30L79.981 20.2H81.262L83.754 24.89L86.232 20.2H87.52L88.843 30H87.247L86.281 22.272L86.687 22.349L83.768 27.788L80.807 22.356L81.213 22.279L80.247 30H78.651ZM91.81 30.14C91.4087 30.14 91.0517 30.056 90.739 29.888C90.4263 29.7153 90.179 29.4773 89.997 29.174C89.8197 28.8707 89.731 28.5137 89.731 28.103C89.731 27.711 89.8197 27.3773 89.997 27.102C90.1743 26.822 90.41 26.5887 90.704 26.402C90.998 26.2153 91.32 26.0683 91.67 25.961C92.0247 25.849 92.384 25.7673 92.748 25.716C93.112 25.6647 93.4503 25.6367 93.763 25.632C93.7583 25.086 93.6417 24.7173 93.413 24.526C93.1843 24.33 92.8367 24.232 92.37 24.232C92.09 24.232 91.803 24.274 91.509 24.358C91.215 24.4373 90.8837 24.589 90.515 24.813L90.347 23.623C90.683 23.4177 91.0587 23.2543 91.474 23.133C91.8893 23.0117 92.3187 22.951 92.762 22.951C93.3173 22.951 93.777 23.049 94.141 23.245C94.505 23.441 94.778 23.7653 94.96 24.218C95.142 24.6707 95.233 25.2773 95.233 26.038V27.648C95.233 27.984 95.247 28.2477 95.275 28.439C95.3077 28.6257 95.3753 28.7587 95.478 28.838C95.5807 28.9173 95.737 28.957 95.947 28.957H96.115L95.933 30.14H95.611C95.2657 30.14 94.9857 30.1027 94.771 30.028C94.561 29.9533 94.3907 29.8483 94.26 29.713C94.1293 29.573 94.0197 29.4073 93.931 29.216C93.6837 29.496 93.3757 29.72 93.007 29.888C92.643 30.056 92.244 30.14 91.81 30.14ZM92.258 28.992C92.5193 28.992 92.7877 28.9267 93.063 28.796C93.343 28.6653 93.5787 28.4833 93.77 28.25V26.626C93.2473 26.6493 92.797 26.7123 92.419 26.815C92.0457 26.913 91.7563 27.0623 91.551 27.263C91.3503 27.4637 91.25 27.7203 91.25 28.033C91.25 28.369 91.3387 28.614 91.516 28.768C91.6933 28.9173 91.9407 28.992 92.258 28.992ZM97.0713 30V23.084H98.3243L98.4993 24.393L98.0513 24.043C98.4293 23.651 98.8236 23.371 99.2343 23.203C99.6449 23.035 100.074 22.951 100.522 22.951C101.479 22.951 102.174 23.245 102.608 23.833C103.042 24.4163 103.259 25.1933 103.259 26.164V30H101.796V26.227C101.796 25.5317 101.673 25.0207 101.425 24.694C101.178 24.3673 100.76 24.204 100.172 24.204C99.7383 24.204 99.3556 24.3043 99.0243 24.505C98.6976 24.701 98.4596 24.995 98.3103 25.387L98.5343 24.582V30H97.0713ZM106.412 30.14C106.01 30.14 105.653 30.056 105.341 29.888C105.028 29.7153 104.781 29.4773 104.599 29.174C104.421 28.8707 104.333 28.5137 104.333 28.103C104.333 27.711 104.421 27.3773 104.599 27.102C104.776 26.822 105.012 26.5887 105.306 26.402C105.6 26.2153 105.922 26.0683 106.272 25.961C106.626 25.849 106.986 25.7673 107.35 25.716C107.714 25.6647 108.052 25.6367 108.365 25.632C108.36 25.086 108.243 24.7173 108.015 24.526C107.786 24.33 107.438 24.232 106.972 24.232C106.692 24.232 106.405 24.274 106.111 24.358C105.817 24.4373 105.485 24.589 105.117 24.813L104.949 23.623C105.285 23.4177 105.66 23.2543 106.076 23.133C106.491 23.0117 106.92 22.951 107.364 22.951C107.919 22.951 108.379 23.049 108.743 23.245C109.107 23.441 109.38 23.7653 109.562 24.218C109.744 24.6707 109.835 25.2773 109.835 26.038V27.648C109.835 27.984 109.849 28.2477 109.877 28.439C109.909 28.6257 109.977 28.7587 110.08 28.838C110.182 28.9173 110.339 28.957 110.549 28.957H110.717L110.535 30.14H110.213C109.867 30.14 109.587 30.1027 109.373 30.028C109.163 29.9533 108.992 29.8483 108.862 29.713C108.731 29.573 108.621 29.4073 108.533 29.216C108.285 29.496 107.977 29.72 107.609 29.888C107.245 30.056 106.846 30.14 106.412 30.14ZM106.86 28.992C107.121 28.992 107.389 28.9267 107.665 28.796C107.945 28.6653 108.18 28.4833 108.372 28.25V26.626C107.849 26.6493 107.399 26.7123 107.021 26.815C106.647 26.913 106.358 27.0623 106.153 27.263C105.952 27.4637 105.852 27.7203 105.852 28.033C105.852 28.369 105.94 28.614 106.118 28.768C106.295 28.9173 106.542 28.992 106.86 28.992ZM114.445 33.514C113.81 33.514 113.248 33.4347 112.758 33.276C112.268 33.1173 111.883 32.8863 111.603 32.583C111.328 32.2843 111.19 31.918 111.19 31.484C111.19 31.12 111.293 30.8027 111.498 30.532C111.703 30.266 111.99 30.042 112.359 29.86C112.154 29.748 111.993 29.615 111.876 29.461C111.764 29.3023 111.708 29.1273 111.708 28.936C111.708 28.7213 111.771 28.53 111.897 28.362C112.028 28.194 112.221 28.0563 112.478 27.949C112.105 27.7063 111.82 27.3843 111.624 26.983C111.428 26.5817 111.33 26.1407 111.33 25.66C111.33 25.1607 111.44 24.7057 111.659 24.295C111.883 23.8797 112.205 23.5507 112.625 23.308C113.05 23.0653 113.563 22.944 114.165 22.944C114.482 22.944 114.779 22.9883 115.054 23.077C115.334 23.161 115.586 23.28 115.81 23.434C115.992 23.3313 116.221 23.245 116.496 23.175C116.776 23.1003 117.086 23.063 117.427 23.063C117.474 23.063 117.518 23.063 117.56 23.063C117.602 23.063 117.644 23.063 117.686 23.063L117.546 24.008C117.471 24.008 117.397 24.008 117.322 24.008C117.247 24.008 117.173 24.008 117.098 24.008C117.051 24.008 116.965 24.0127 116.839 24.022C116.713 24.0313 116.592 24.0477 116.475 24.071C116.648 24.295 116.778 24.5423 116.867 24.813C116.956 25.0837 117 25.366 117 25.66C117 26.178 116.888 26.6447 116.664 27.06C116.445 27.4753 116.123 27.8067 115.698 28.054C115.278 28.3013 114.767 28.425 114.165 28.425C114.016 28.425 113.869 28.4157 113.724 28.397C113.584 28.3737 113.449 28.3457 113.318 28.313C113.15 28.369 113.066 28.4693 113.066 28.614C113.066 28.726 113.134 28.8193 113.269 28.894C113.404 28.964 113.619 29.0223 113.913 29.069L115.481 29.3C116.228 29.412 116.806 29.6267 117.217 29.944C117.632 30.2613 117.84 30.714 117.84 31.302C117.84 31.7733 117.702 32.1723 117.427 32.499C117.156 32.8303 116.767 33.0823 116.258 33.255C115.749 33.4277 115.145 33.514 114.445 33.514ZM114.543 32.31C115.164 32.31 115.637 32.2307 115.964 32.072C116.291 31.918 116.454 31.6847 116.454 31.372C116.454 31.1107 116.347 30.9123 116.132 30.777C115.917 30.6417 115.595 30.5367 115.166 30.462L113.388 30.182C113.145 30.2847 112.935 30.4223 112.758 30.595C112.585 30.7723 112.499 30.987 112.499 31.239C112.499 31.6077 112.681 31.8783 113.045 32.051C113.414 32.2237 113.913 32.31 114.543 32.31ZM114.165 27.298C114.65 27.298 115.017 27.1487 115.264 26.85C115.516 26.5467 115.642 26.1523 115.642 25.667C115.642 25.191 115.516 24.806 115.264 24.512C115.017 24.2133 114.65 24.064 114.165 24.064C113.68 24.064 113.311 24.2133 113.059 24.512C112.812 24.806 112.688 25.191 112.688 25.667C112.688 26.1523 112.812 26.5467 113.059 26.85C113.311 27.1487 113.68 27.298 114.165 27.298ZM121.964 30.14C121.138 30.14 120.447 29.9743 119.892 29.643C119.336 29.307 118.916 28.8637 118.632 28.313C118.352 27.7577 118.212 27.151 118.212 26.493C118.212 25.8537 118.342 25.2657 118.604 24.729C118.87 24.1923 119.255 23.763 119.759 23.441C120.267 23.1143 120.881 22.951 121.6 22.951C122.211 22.951 122.741 23.0747 123.189 23.322C123.637 23.5693 123.98 23.9147 124.218 24.358C124.46 24.8013 124.582 25.3193 124.582 25.912C124.582 26.0333 124.575 26.1593 124.561 26.29C124.551 26.4207 124.533 26.5583 124.505 26.703H119.724C119.784 27.249 119.929 27.683 120.158 28.005C120.386 28.3223 120.671 28.5487 121.012 28.684C121.352 28.8193 121.721 28.887 122.118 28.887C122.472 28.887 122.822 28.8473 123.168 28.768C123.513 28.684 123.837 28.565 124.141 28.411L124.274 29.608C124.008 29.734 123.681 29.8553 123.294 29.972C122.906 30.084 122.463 30.14 121.964 30.14ZM119.808 25.702H123.084C123.084 25.4267 123.032 25.177 122.93 24.953C122.827 24.7243 122.664 24.5423 122.44 24.407C122.22 24.2717 121.936 24.204 121.586 24.204C121.072 24.204 120.673 24.3393 120.389 24.61C120.109 24.8807 119.915 25.2447 119.808 25.702ZM125.823 30V23.084H127.111L127.216 24.05C127.496 23.714 127.795 23.4457 128.112 23.245C128.434 23.0443 128.782 22.944 129.155 22.944C129.267 22.944 129.372 22.9557 129.47 22.979L129.344 24.498C129.265 24.4793 129.183 24.4653 129.099 24.456C129.02 24.4467 128.936 24.442 128.847 24.442C128.511 24.442 128.203 24.519 127.923 24.673C127.648 24.8223 127.452 24.9927 127.335 25.184V30H125.823Z" fill="#9D9AED"/>
</svg>
